# xmcd
#
# Track frame offsets: 
#        150
#        13777
#        26212
#        40090
#        52207
#        65947
#        77517
#        89612
#        103895
#        114717
#        128112
#        142495
#        154655
#        167442
#        179880
#        199607
#        213157
#
# Disc length: 3097 seconds
#
# Revision: 2
# Processed by: cddbd v1.5.2PL0 Copyright (c) Steve Scherf et al.
# Submitted via: ExactAudioCopyFreeDBPlugin 1.0
#
DISCID=030c1711
DTITLE=Blues - Grandes Exitos
DYEAR=1900
DGENRE=Blues
TTITLE0=John Lee Hooker - One Bourbon, One Scotch, one Beer
TTITLE1=Howlin´Wolf - Spoonful
TTITLE2=Muddy Waters - I Be´s Troubled
TTITLE3=Jimmy Witherspoon - Ain´t Nobody´s Business
TTITLE4=Robert Nighthawk - Black Angel Blues (Sweet Black Angel)
TTITLE5=Sunny Boy Williamson - Don´t Start Me Talking
TTITLE6=Elmore James - The Sun Is Shining
TTITLE7=Lowell Fulson - Reconsider Baby
TTITLE8=Little Walter - Blue Midnight
TTITLE9=Buddy Guy - My Time After A While
TTITLE10=Otis Rush - So Many Roads, So Many Trains
TTITLE11=Bobby Bland - I Pity The Fool
TTITLE12=Howlin´Wolf - Killing Floor
TTITLE13=Bo Didley - Pretty Thing
TTITLE14=Little Milton - Stormy Monday
TTITLE15=Koko Taylor - Wang Dang Doodle
TTITLE16=Etta James - Baby, What You Want Me To Do
EXTD=ID3G: 0
EXTT0=
EXTT1=
EXTT2=
EXTT3=
EXTT4=
EXTT5=
EXTT6=
EXTT7=
EXTT8=
EXTT9=
EXTT10=
EXTT11=
EXTT12=
EXTT13=
EXTT14=
EXTT15=
EXTT16=
PLAYORDER=
